<?xml version="1.0" standalone="no"?>
<!DOCTYPE svg PUBLIC "-//W3C//DTD SVG 20010904//EN"
 "http://www.w3.org/TR/2001/REC-SVG-20010904/DTD/svg10.dtd">
<svg version="1.0" xmlns="http://www.w3.org/2000/svg"
 width="201.000000pt" height="48.000000pt" viewBox="0 0 201.000000 48.000000"
 preserveAspectRatio="xMidYMid meet">

<g transform="translate(0.000000,48.000000) scale(0.100000,-0.100000)"
fill="#000000" stroke="none">
<path d="M53 469 c-53 -20 -65 -92 -20 -124 64 -45 144 26 107 95 -13 24 -59
39 -87 29z"/>
<path d="M580 240 c0 -207 2 -240 15 -240 13 0 15 33 15 234 0 199 -2 235 -15
240 -13 5 -15 -25 -15 -234z"/>
<path d="M197 452 c-10 -10 -17 -23 -17 -28 0 -4 7 2 16 14 23 33 83 28 101
-8 8 -16 13 -19 13 -9 0 44 -82 66 -113 31z"/>
<path d="M364 448 c-19 -23 -19 -23 1 -6 11 9 34 18 50 21 l30 4 -31 2 c-21 1
-37 -6 -50 -21z"/>
<path d="M462 438 c7 -15 15 -23 17 -17 2 6 -4 18 -13 27 -15 15 -15 15 -4
-10z"/>
<path d="M690 346 c0 -88 3 -106 15 -106 11 0 15 12 15 45 0 41 2 45 25 45 29
0 65 32 65 58 0 34 -25 54 -73 59 l-47 6 0 -107z m81 65 c23 -19 24 -19 5 -40
-11 -12 -27 -21 -38 -21 -14 0 -18 8 -18 40 0 45 14 51 51 21z"/>
<path d="M868 434 c-36 -19 -48 -43 -48 -94 0 -97 129 -136 194 -59 79 93 -36
213 -146 153z m118 -28 c57 -48 28 -130 -49 -143 -31 -5 -40 -1 -67 25 -39 39
-39 74 -1 113 37 36 79 38 117 5z"/>
<path d="M1057 348 c1 -63 6 -104 12 -106 7 -2 11 14 11 42 0 25 3 46 8 46 4
-1 22 -21 40 -45 18 -25 40 -45 48 -45 12 0 8 10 -15 39 -36 46 -37 52 -11 69
28 17 27 66 -2 86 -12 9 -38 16 -58 16 l-35 0 2 -102z m74 72 c38 -21 13 -70
-35 -70 -12 0 -16 10 -16 40 0 43 13 50 51 30z"/>
<path d="M1180 440 c0 -5 11 -10 25 -10 25 0 25 0 25 -95 0 -123 18 -125 22
-3 3 84 5 93 23 96 50 9 34 22 -28 22 -38 0 -67 -4 -67 -10z"/>
<path d="M1320 365 c0 -99 15 -125 75 -125 60 0 75 26 75 125 0 50 -4 85 -10
85 -6 0 -10 -31 -10 -73 0 -82 -16 -117 -55 -117 -39 0 -55 35 -55 117 0 42
-4 73 -10 73 -6 0 -10 -35 -10 -85z"/>
<path d="M1541 436 c-31 -17 -50 -53 -51 -94 0 -46 54 -102 99 -102 43 0 85
23 99 55 22 47 16 56 -30 53 -46 -3 -55 -21 -13 -26 14 -2 25 -7 25 -12 0 -16
-52 -50 -76 -50 -32 0 -73 39 -80 77 -5 27 -1 37 24 63 35 34 74 39 111 14 15
-11 26 -13 33 -6 14 14 -42 42 -84 42 -18 -1 -44 -7 -57 -14z"/>
<path d="M1737 348 c-26 -55 -46 -103 -43 -105 8 -9 27 8 36 33 8 21 16 24 59
24 46 0 52 -3 66 -30 9 -16 20 -30 26 -30 13 0 16 -8 -41 113 -24 53 -47 97
-50 96 -3 0 -27 -45 -53 -101z m76 7 l17 -35 -40 0 -40 0 17 35 c9 19 20 35
23 35 3 0 14 -16 23 -35z"/>
<path d="M1900 345 l0 -105 55 0 c42 0 55 3 55 15 0 11 -11 15 -40 15 l-40 0
0 90 c0 73 -3 90 -15 90 -12 0 -15 -18 -15 -105z"/>
<path d="M341 404 c0 -11 3 -14 6 -6 3 7 2 16 -1 19 -3 4 -6 -2 -5 -13z"/>
<path d="M180 371 c0 -15 42 -41 65 -41 12 0 30 7 41 16 18 15 18 15 -3 5 -33
-16 -61 -13 -83 9 -11 11 -20 16 -20 11z"/>
<path d="M350 372 c0 -16 41 -42 65 -41 14 0 11 3 -10 10 -16 5 -36 16 -42 26
-7 9 -13 12 -13 5z"/>
<path d="M34 294 c-10 -8 -13 -12 -5 -8 8 4 28 11 45 15 29 6 29 7 5 8 -14 1
-34 -6 -45 -15z"/>
<path d="M191 284 c-12 -15 -21 -34 -21 -44 0 -10 9 -29 21 -44 28 -36 80 -36
108 0 26 34 26 54 0 88 -28 36 -80 36 -108 0z"/>
<path d="M361 284 c-24 -30 -26 -46 -10 -77 16 -30 28 -37 65 -37 38 0 67 30
67 70 0 67 -81 96 -122 44z"/>
<path d="M121 283 c7 -12 15 -20 18 -17 3 2 -3 12 -13 22 -17 16 -18 16 -5 -5z"/>
<path d="M12 240 c0 -19 2 -27 5 -17 2 9 2 25 0 35 -3 9 -5 1 -5 -18z"/>
<path d="M121 197 c-13 -21 -12 -21 5 -5 10 10 16 20 13 22 -3 3 -11 -5 -18
-17z"/>
<path d="M734 190 c-55 -23 -70 -95 -29 -135 26 -27 86 -34 115 -15 10 7 1 8
-30 4 -57 -8 -93 17 -93 64 0 59 53 93 106 67 33 -16 46 -15 24 4 -20 16 -68
22 -93 11z"/>
<path d="M1509 185 c-38 -21 -55 -67 -39 -105 7 -17 21 -35 31 -40 21 -12 99
-13 99 -2 0 4 -18 6 -39 4 -30 -3 -44 1 -60 17 -54 54 3 148 74 121 14 -5 25
-6 25 -1 0 23 -54 26 -91 6z"/>
<path d="M1640 182 c-19 -15 -21 -22 -12 -39 7 -12 25 -26 42 -31 35 -13 47
-36 30 -57 -17 -20 -56 -19 -64 1 -4 9 -9 14 -13 11 -12 -12 20 -37 47 -37 62
0 67 64 8 93 -21 10 -38 25 -38 32 0 21 32 35 53 24 10 -6 17 -6 17 -1 0 10
-23 22 -40 22 -4 0 -18 -8 -30 -18z"/>
<path d="M870 109 c0 -46 4 -79 10 -79 6 0 10 16 10 35 0 44 11 44 41 0 13
-19 28 -35 33 -35 4 0 -3 16 -18 35 -26 34 -26 34 -6 45 16 9 20 19 18 43 -3
30 -5 32 -45 33 l-43 1 0 -78z m78 45 c3 -24 -20 -47 -49 -49 -13 -1 -18 3
-14 12 3 8 5 26 5 39 0 22 4 25 28 22 18 -2 28 -9 30 -24z"/>
<path d="M1055 181 c-3 -6 -2 -11 3 -11 5 0 14 -18 21 -40 6 -22 16 -40 21
-40 5 0 0 21 -12 48 -25 57 -24 56 -33 43z"/>
<path d="M1162 108 l2 -83 3 78 c4 72 5 77 26 77 52 0 62 -44 15 -65 -21 -9
-26 -14 -15 -15 31 0 57 20 57 43 0 32 -18 47 -57 47 l-33 0 2 -82z"/>
<path d="M1273 110 c0 -47 2 -66 4 -42 2 23 2 61 0 85 -2 23 -4 4 -4 -43z"/>
<path d="M1380 156 c0 -34 -1 -35 -47 -39 l-48 -3 47 -2 47 -2 3 -42 c2 -24 5
-6 5 40 1 45 0 82 -3 82 -2 0 -4 -16 -4 -34z"/>
<path d="M1425 110 c0 -44 3 -80 8 -80 4 0 7 36 7 80 0 44 -3 80 -7 80 -5 0
-8 -36 -8 -80z"/>
<path d="M63 173 c9 -2 23 -2 30 0 6 3 -1 5 -18 5 -16 0 -22 -2 -12 -5z"/>
<path d="M1027 125 c-9 -19 -13 -35 -8 -35 10 0 36 58 29 65 -2 3 -12 -11 -21
-30z"/>
<path d="M85 139 c16 -5 36 -16 42 -26 7 -9 13 -12 13 -5 0 16 -41 42 -65 41
-14 0 -11 -3 10 -10z"/>
<path d="M195 125 c-28 -27 -30 -42 -14 -79 32 -69 139 -38 139 40 0 24 -47
64 -75 64 -14 0 -37 -11 -50 -25z"/>
<path d="M30 130 c-9 -6 -10 -10 -3 -10 6 0 15 5 18 10 8 12 4 12 -15 0z"/>
<path d="M812 103 c25 -4 27 -7 17 -25 -9 -16 -8 -19 3 -16 7 3 14 14 16 26 3
19 -1 22 -30 21 -30 -2 -31 -2 -6 -6z"/>
<path d="M141 74 c0 -11 3 -14 6 -6 3 7 2 16 -1 19 -3 4 -6 -2 -5 -13z"/>
<path d="M11 64 c-3 -51 79 -73 115 -31 19 22 19 22 -2 4 -24 -20 -77 -23 -92
-4 -5 6 -12 21 -15 32 -4 19 -5 19 -6 -1z"/>
<path d="M992 55 c-6 -14 -7 -25 -2 -25 9 0 25 39 18 46 -3 2 -10 -7 -16 -21z"/>
<path d="M1038 73 c12 -2 32 -2 45 0 12 2 2 4 -23 4 -25 0 -35 -2 -22 -4z"/>
<path d="M1111 70 c-1 -18 16 -46 23 -40 2 3 -2 16 -9 30 -8 15 -14 19 -14 10z"/>
</g>
</svg>
